<svg xmlns="http://www.w3.org/2000/svg" version="1.1" xmlns:xlink="http://www.w3.org/1999/xlink" xmlns:svgjs="http://svgjs.dev/svgjs" width="1000" height="1033" viewBox="0 0 1000 1033"><g transform="matrix(1,0,0,1,0.3317033825680369,0.4182186234817209)"><svg viewBox="0 0 239 247" data-background-color="#00015a" preserveAspectRatio="xMidYMid meet" height="1033" width="1000" xmlns="http://www.w3.org/2000/svg" xmlns:xlink="http://www.w3.org/1999/xlink"><g id="tight-bounds" transform="matrix(1,0,0,1,-0.07927710843375735,-0.09999999999999432)"><svg viewBox="0 0 239.15855421686751 247.2" height="247.2" width="239.15855421686751"><g><svg viewBox="0 0 239.15855421686751 247.2" height="247.2" width="239.15855421686751"><g><svg viewBox="0 0 239.15855421686751 247.2" height="247.2" width="239.15855421686751"><g><svg viewBox="0 0 239.15855421686751 247.2" height="247.2" width="239.15855421686751"><g><svg viewBox="0 0 239.15855421686751 247.2" height="247.2" width="239.15855421686751"><g transform="matrix(1,0,0,1,0,0)"><svg width="239.15855421686751" viewBox="0.5999963283538818 -38.500003814697266 40.15000534057617 38.500003814697266" height="247.2" data-palette-color="#ffffff"><svg></svg><g class="undefined-text-0" data-fill-palette-color="primary" id="text-0"><path xmlns="http://www.w3.org/2000/svg" d="M40.25-38.5l0.5 11h-2.15c-0.1-1.633-0.34-2.993-0.72-4.08-0.387-1.08-0.93-1.947-1.63-2.6-0.7-0.647-1.55-1.093-2.55-1.34-1-0.253-2.167-0.38-3.5-0.38v0c-1.3 0-2.34 0.023-3.12 0.07-0.787 0.053-1.387 0.137-1.8 0.25-0.42 0.12-0.697 0.28-0.83 0.48-0.133 0.2-0.2 0.45-0.2 0.75v0 26.2c0 1.067 0.077 1.983 0.23 2.75 0.147 0.767 0.453 1.39 0.92 1.87 0.467 0.487 1.15 0.853 2.05 1.1 0.9 0.253 2.083 0.397 3.55 0.43v0 2h-20.95v-2c1.5-0.033 2.7-0.177 3.6-0.43 0.9-0.247 1.593-0.613 2.08-1.1 0.48-0.48 0.797-1.103 0.95-1.87 0.147-0.767 0.22-1.683 0.22-2.75v0-26.2c0-0.3-0.057-0.55-0.17-0.75-0.12-0.2-0.363-0.36-0.73-0.48-0.367-0.113-0.89-0.197-1.57-0.25-0.687-0.047-1.58-0.07-2.68-0.07v0c-1.2 0-2.35 0.057-3.45 0.17-1.1 0.12-2.067 0.453-2.9 1-0.833 0.553-1.507 1.387-2.02 2.5-0.52 1.12-0.797 2.697-0.83 4.73v0h-1.95l0.5-11z" fill="#ffffff" fill-rule="nonzero" stroke="none" stroke-width="1" stroke-linecap="butt" stroke-linejoin="miter" stroke-miterlimit="10" stroke-dasharray="" stroke-dashoffset="0" font-family="none" font-weight="none" font-size="none" text-anchor="none" style="mix-blend-mode: normal" data-fill-palette-color="primary" opacity="1"></path></g></svg></g></svg></g></svg></g></svg></g></svg></g><defs></defs></svg><rect width="239.15855421686751" height="247.2" fill="none" stroke="none" visibility="hidden"></rect></g></svg></g></svg>