<svg xmlns="http://www.w3.org/2000/svg" version="1.1" xmlns:xlink="http://www.w3.org/1999/xlink" xmlns:svgjs="http://svgjs.dev/svgjs" width="1000" height="1000" viewBox="0 0 1000 1000"><rect width="1000" height="1000" fill="#ffffff"></rect><g transform="matrix(0.7,0,0,0.7,149.57576747358263,344.5026563189924)"><svg viewBox="0 0 396 176" data-background-color="#ffffff" preserveAspectRatio="xMidYMid meet" height="444" width="1000" xmlns="http://www.w3.org/2000/svg" xmlns:xlink="http://www.w3.org/1999/xlink"><g id="tight-bounds" transform="matrix(1,0,0,1,0.2399945464751454,0.055123834804803096)"><svg viewBox="0 0 395.52 175.8897523303904" height="175.8897523303904" width="395.52"><g><svg viewBox="0 0 395.52 175.8897523303904" height="175.8897523303904" width="395.52"><g><svg viewBox="0 0 395.52 175.8897523303904" height="175.8897523303904" width="395.52"><g><svg viewBox="0 0 395.52 175.8897523303904" height="175.8897523303904" width="395.52"><g><svg viewBox="0 0 395.52 108.70302280633938" height="108.70302280633938" width="395.52"><g transform="matrix(1,0,0,1,0,0)"><svg width="395.52" viewBox="1.9500000476837158 -35.20000076293945 129.33999633789062 35.54999923706055" height="108.70302280633938" data-palette-color="#00015a"><path d="M1.95-34.75L26.2-34.75 26.2-30.1 16.95-30.1 16.95 0 11.25 0 11.25-30.1 1.95-30.1 1.95-34.75ZM31.95-34.75L37.65-34.75 37.65 0 31.95 0 31.95-34.75ZM43.35-34.75L67.59-34.75 67.59-30.1 58.34-30.1 58.34 0 52.65 0 52.65-30.1 43.35-30.1 43.35-34.75ZM73.29-34.75L78.99-34.75 78.99-12.6Q78.99-8.65 81.07-6.65 83.14-4.65 86.84-4.65L86.84-4.65Q90.59-4.65 92.67-6.65 94.74-8.65 94.74-12.6L94.74-12.6 94.74-34.75 100.44-34.75 100.44-12.7Q100.44-8.45 98.59-5.5 96.74-2.55 93.64-1.1 90.54 0.35 86.79 0.35L86.79 0.35Q83.04 0.35 79.97-1.1 76.89-2.55 75.09-5.5 73.29-8.45 73.29-12.7L73.29-12.7 73.29-34.75ZM119.29 0.35Q115.79 0.35 112.99-0.88 110.19-2.1 108.59-4.35 106.99-6.6 106.99-9.6L106.99-9.6 113.09-9.6Q113.29-7.35 114.87-5.9 116.44-4.45 119.29-4.45L119.29-4.45Q122.24-4.45 123.89-5.88 125.54-7.3 125.54-9.55L125.54-9.55Q125.54-11.3 124.52-12.4 123.49-13.5 121.97-14.1 120.44-14.7 117.74-15.4L117.74-15.4Q114.34-16.3 112.22-17.23 110.09-18.15 108.59-20.1 107.09-22.05 107.09-25.3L107.09-25.3Q107.09-28.3 108.59-30.55 110.09-32.8 112.79-34 115.49-35.2 119.04-35.2L119.04-35.2Q124.09-35.2 127.31-32.68 130.54-30.15 130.89-25.75L130.89-25.75 124.59-25.75Q124.44-27.65 122.79-29 121.14-30.35 118.44-30.35L118.44-30.35Q115.99-30.35 114.44-29.1 112.89-27.85 112.89-25.5L112.89-25.5Q112.89-23.9 113.87-22.88 114.84-21.85 116.34-21.25 117.84-20.65 120.44-19.95L120.44-19.95Q123.89-19 126.06-18.05 128.24-17.1 129.77-15.13 131.29-13.15 131.29-9.85L131.29-9.85Q131.29-7.2 129.87-4.85 128.44-2.5 125.72-1.07 122.99 0.35 119.29 0.35L119.29 0.35Z" opacity="1" transform="matrix(1,0,0,1,0,0)" fill="#00015a" class="undefined-text-0" data-fill-palette-color="primary" id="text-0"></path></svg></g></svg></g><g transform="matrix(1,0,0,1,0,134.36519761836874)"><svg viewBox="0 0 395.52 41.52455471202164" height="41.52455471202164" width="395.52"><g transform="matrix(1,0,0,1,0,0)"><svg width="395.52" viewBox="3.549999952316284 -40.900001525878906 394.33001708984375 41.400001525878906" height="41.52455471202164" data-palette-color="#ffffff"><path d="M18.85 0L3.55 0 3.55-40.5 7.35-40.5 7.35-2.85 18.85-2.85 18.85 0ZM33.77 0.5L33.77 0.5Q29.72 0.5 27.44-1.07 25.17-2.65 24.24-5.48 23.32-8.3 23.32-11.95L23.32-11.95 23.32-28.75Q23.32-32.45 24.29-35.18 25.27-37.9 27.54-39.4 29.82-40.9 33.77-40.9L33.77-40.9Q37.67-40.9 39.94-39.4 42.22-37.9 43.17-35.18 44.12-32.45 44.12-28.75L44.12-28.75 44.12-11.9Q44.12-8.25 43.19-5.48 42.27-2.7 40.02-1.1 37.77 0.5 33.77 0.5ZM33.77-2.55L33.77-2.55Q36.42-2.55 37.82-3.63 39.22-4.7 39.74-6.63 40.27-8.55 40.27-11.1L40.27-11.1 40.27-29.45Q40.27-32 39.74-33.9 39.22-35.8 37.82-36.83 36.42-37.85 33.77-37.85L33.77-37.85Q31.07-37.85 29.64-36.83 28.22-35.8 27.69-33.9 27.17-32 27.17-29.45L27.17-29.45 27.17-11.1Q27.17-8.55 27.69-6.63 28.22-4.7 29.64-3.63 31.07-2.55 33.77-2.55ZM60.68 0.5L60.68 0.5Q57.38 0.5 55.21-0.88 53.03-2.25 51.93-4.73 50.83-7.2 50.58-10.5L50.58-10.5 53.93-11.5Q54.18-9 54.83-6.98 55.48-4.95 56.88-3.78 58.28-2.6 60.73-2.6L60.73-2.6Q63.43-2.6 64.93-4 66.43-5.4 66.43-8.45L66.43-8.45Q66.43-11.15 65.11-13.1 63.78-15.05 61.48-17.2L61.48-17.2 54.33-24.05Q52.43-25.9 51.53-27.88 50.63-29.85 50.63-32.2L50.63-32.2Q50.63-36.4 53.13-38.65 55.63-40.9 59.78-40.9L59.78-40.9Q61.93-40.9 63.66-40.35 65.38-39.8 66.61-38.58 67.83-37.35 68.53-35.4 69.23-33.45 69.48-30.65L69.48-30.65 66.23-29.8Q66.03-32.35 65.41-34.18 64.78-36 63.46-36.95 62.13-37.9 59.78-37.9L59.78-37.9Q57.28-37.9 55.68-36.6 54.08-35.3 54.08-32.55L54.08-32.55Q54.08-30.9 54.71-29.55 55.33-28.2 56.93-26.65L56.93-26.65 64.08-19.9Q66.48-17.65 68.23-14.9 69.98-12.15 69.98-8.7L69.98-8.7Q69.98-5.65 68.81-3.6 67.63-1.55 65.53-0.53 63.43 0.5 60.68 0.5ZM85.55 0L81.75 0 81.75-37.55 74.1-37.55 74.1-40.5 93-40.5 93-37.55 85.55-37.55 85.55 0ZM114.88 0L111.08 0 111.08-40.5 114.88-40.5 114.88 0ZM127.05 0L123.75 0 123.75-40.5 126.5-40.5 139.4-9.05 139.4-40.5 142.7-40.5 142.7 0 140 0 127.05-31.8 127.05 0ZM172.08 0L168.28 0 168.28-37.55 160.63-37.55 160.63-40.5 179.53-40.5 179.53-37.55 172.08-37.55 172.08 0ZM189.45 0L185.6 0 185.6-40.5 189.45-40.5 189.45-22.55 202.2-22.55 202.2-40.5 206-40.5 206 0 202.2 0 202.2-19.7 189.45-19.7 189.45 0ZM229.47 0L214.72 0 214.72-40.5 229.37-40.5 229.37-37.55 218.57-37.55 218.57-22.35 227.37-22.35 227.37-19.55 218.57-19.55 218.57-2.85 229.47-2.85 229.47 0ZM256.8 0.5L256.8 0.5Q253.5 0.5 251.33-0.88 249.15-2.25 248.05-4.73 246.95-7.2 246.7-10.5L246.7-10.5 250.05-11.5Q250.3-9 250.95-6.98 251.6-4.95 253-3.78 254.4-2.6 256.85-2.6L256.85-2.6Q259.55-2.6 261.05-4 262.55-5.4 262.55-8.45L262.55-8.45Q262.55-11.15 261.23-13.1 259.9-15.05 257.6-17.2L257.6-17.2 250.45-24.05Q248.55-25.9 247.65-27.88 246.75-29.85 246.75-32.2L246.75-32.2Q246.75-36.4 249.25-38.65 251.75-40.9 255.9-40.9L255.9-40.9Q258.05-40.9 259.78-40.35 261.5-39.8 262.73-38.58 263.95-37.35 264.65-35.4 265.35-33.45 265.6-30.65L265.6-30.65 262.35-29.8Q262.15-32.35 261.53-34.18 260.9-36 259.58-36.95 258.25-37.9 255.9-37.9L255.9-37.9Q253.4-37.9 251.8-36.6 250.2-35.3 250.2-32.55L250.2-32.55Q250.2-30.9 250.83-29.55 251.45-28.2 253.05-26.65L253.05-26.65 260.2-19.9Q262.6-17.65 264.35-14.9 266.1-12.15 266.1-8.7L266.1-8.7Q266.1-5.65 264.93-3.6 263.75-1.55 261.65-0.53 259.55 0.5 256.8 0.5ZM282.47 0.5L282.47 0.5Q278.42 0.5 276.14-1.07 273.87-2.65 272.94-5.48 272.02-8.3 272.02-11.95L272.02-11.95 272.02-28.75Q272.02-32.45 272.99-35.18 273.97-37.9 276.24-39.4 278.52-40.9 282.47-40.9L282.47-40.9Q286.37-40.9 288.64-39.4 290.92-37.9 291.87-35.18 292.82-32.45 292.82-28.75L292.82-28.75 292.82-11.9Q292.82-8.25 291.89-5.48 290.97-2.7 288.72-1.1 286.47 0.5 282.47 0.5ZM282.47-2.55L282.47-2.55Q285.12-2.55 286.52-3.63 287.92-4.7 288.44-6.63 288.97-8.55 288.97-11.1L288.97-11.1 288.97-29.45Q288.97-32 288.44-33.9 287.92-35.8 286.52-36.83 285.12-37.85 282.47-37.85L282.47-37.85Q279.77-37.85 278.34-36.83 276.92-35.8 276.39-33.9 275.87-32 275.87-29.45L275.87-29.45 275.87-11.1Q275.87-8.55 276.39-6.63 276.92-4.7 278.34-3.63 279.77-2.55 282.47-2.55ZM310.68 0.5L310.68 0.5Q306.58 0.5 304.31-0.98 302.03-2.45 301.18-5.08 300.33-7.7 300.33-11.05L300.33-11.05 300.33-40.5 304.03-40.5 304.03-10.95Q304.03-8.6 304.56-6.68 305.08-4.75 306.53-3.65 307.98-2.55 310.68-2.55L310.68-2.55Q313.28-2.55 314.73-3.68 316.18-4.8 316.76-6.7 317.33-8.6 317.33-10.95L317.33-10.95 317.33-40.5 320.98-40.5 320.98-11.05Q320.98-7.7 320.08-5.08 319.18-2.45 316.93-0.98 314.68 0.5 310.68 0.5ZM333.1 0L329.3 0 329.3-40.5 338.45-40.5Q342.25-40.5 344.43-39.28 346.6-38.05 347.55-35.73 348.5-33.4 348.5-30.2L348.5-30.2Q348.5-27.95 348-25.95 347.5-23.95 346.3-22.55 345.1-21.15 342.9-20.7L342.9-20.7 349.1 0 345.4 0 339.45-19.9 333.1-19.9 333.1 0ZM333.1-37.65L333.1-22.7 338.25-22.7Q340.8-22.7 342.2-23.55 343.6-24.4 344.2-26.05 344.8-27.7 344.8-30.2L344.8-30.2Q344.8-33.95 343.5-35.8 342.2-37.65 338.35-37.65L338.35-37.65 333.1-37.65ZM365.97 0.5L365.97 0.5Q361.87 0.5 359.64-1.2 357.42-2.9 356.57-5.78 355.72-8.65 355.72-12.15L355.72-12.15 355.72-28.25Q355.72-32 356.59-34.85 357.47-37.7 359.72-39.3 361.97-40.9 365.97-40.9L365.97-40.9Q369.62-40.9 371.69-39.5 373.77-38.1 374.67-35.52 375.57-32.95 375.57-29.4L375.57-29.4 375.57-26.95 371.97-26.95 371.97-29.3Q371.97-31.95 371.54-33.85 371.12-35.75 369.82-36.8 368.52-37.85 366.02-37.85L366.02-37.85Q363.27-37.85 361.89-36.73 360.52-35.6 360.04-33.55 359.57-31.5 359.57-28.8L359.57-28.8 359.57-11.55Q359.57-8.55 360.14-6.55 360.72-4.55 362.12-3.55 363.52-2.55 366.02-2.55L366.02-2.55Q368.57-2.55 369.84-3.65 371.12-4.75 371.54-6.73 371.97-8.7 371.97-11.35L371.97-11.35 371.97-14 375.57-14 375.57-11.6Q375.57-8.05 374.74-5.33 373.92-2.6 371.84-1.05 369.77 0.5 365.97 0.5ZM397.88 0L383.13 0 383.13-40.5 397.78-40.5 397.78-37.55 386.98-37.55 386.98-22.35 395.78-22.35 395.78-19.55 386.98-19.55 386.98-2.85 397.88-2.85 397.88 0Z" opacity="1" transform="matrix(1,0,0,1,0,0)" fill="#ffffff" class="undefined-text-1" data-fill-palette-color="secondary" id="text-1"></path></svg></g></svg></g></svg></g></svg></g><g></g></svg></g><defs></defs></svg><rect width="395.52" height="175.8897523303904" fill="none" stroke="none" visibility="hidden"></rect></g></svg></g></svg>